<svg height="64" viewBox="0 0 64 64" width="64" xmlns="http://www.w3.org/2000/svg"><g fill="#80d25b" fill-rule="evenodd"><path d="m46 20c0-7.7319865-6.536168-14-14.5989398-14-8.0627719 0-14.5989399 6.2680135-14.5989399 14z"/><path d="m37.554 11h2v2h-2z"/><path d="m23.554 11h2v2h-2z"/><path d="m27.3397987 8.22825637-3-5c-.4262223-.7103704-1.3476127-.940718-2.0579831-.51449576s-.940718 1.34761262-.5144957 2.05798302l3 5c.4262222.71037037 1.3476126.94071797 2.057983.51449577.7103704-.42622225.940718-1.34761263.5144958-2.05798303zm11 1.54348726 3-5c.4262222-.7103704.1958746-1.63176078-.5144958-2.05798302s-1.6317608-.19587464-2.057983.51449576l-3 5c-.4262223.7103704-.1958747 1.63176078.5144957 2.05798303.7103704.4262222 1.6317608.1958746 2.0579831-.51449577z" fill-rule="nonzero"/><path d="m23.0711362 50h-2.1663091c-2.1172891 0-3.8336909-1.7093762-3.8336909-3.8345708v-24.1654292h28.8698329v24.1654292c0 2.117775-1.7194821 3.8345708-3.8336909 3.8345708h-2.0086773v6.9841434c0 1.6656116-1.3526807 3.0158566-3.0137324 3.0158566-1.6644384 0-3.0137323-1.343312-3.0137323-3.0158566v-6.9841434h-4.9725353v6.9841434c0 1.6656116-1.3526807 3.0158566-3.0137324 3.0158566-1.6644384 0-3.0137323-1.343312-3.0137323-3.0158566zm24.9288638-24.05581c0-1.6260313 1.3210685-2.94419 2.9433012-2.94419 1.6255404 0 2.9433012 1.3103161 2.9433012 2.94419v16.11162c0 1.6260313-1.3210685 2.94419-2.9433012 2.94419-1.6255404 0-2.9433012-1.3103161-2.9433012-2.94419zm-39 0c0-1.6260313 1.3210685-2.94419 2.9433012-2.94419 1.6255404 0 2.9433012 1.3103161 2.9433012 2.94419v16.11162c0 1.6260313-1.3210685 2.94419-2.9433012 2.94419-1.6255404 0-2.9433012-1.3103161-2.9433012-2.94419z"/></g></svg>