<svg enable-background="new 0 0 400 300" viewBox="0 0 400 300" xmlns="http://www.w3.org/2000/svg"><g fill="none" stroke="#e6e6e6" stroke-linecap="round" stroke-linejoin="round" stroke-width="2"><path d="m99.7 128.6 1.3.8"/><path d="m109.6 134.7 85.8 52.1" stroke-dasharray="3.04 10.14"/><path d="m199.7 189.4 1.3.8 1.3-.8"/><path d="m210.4 184.1 80.5-52" stroke-dasharray="2.9 9.68"/><path d="m294.9 129.4 1.3-.8"/></g><path d="m248.2 183.8-48.3-27.9-48.3 27.9h-33.9v19.6l82.2 47.5 82.2-47.5v-19.6z" fill="#ffd200"/><path d="m248.2 183.8-48.3-27.9-48.3 27.9h-33.9v19.6l82.2 47.5 82.2-47.5v-19.6z" fill="#fff" opacity=".44"/><path d="m117.7 183.8 82.2 47.5 82.2-47.5-82.2-47.5z" fill="#ffd200"/><path d="m316.3 124.3-20.1-11.6-20.2 11.6h-14.1v8.2l34.3 19.8 34.3-19.8v-8.2z" fill="#24285b"/><path d="m316.3 124.3-20.1-11.6-20.2 11.6h-14.1v8.2l34.3 19.8 34.3-19.8v-8.2z" fill="#fff" opacity=".22"/><path d="m261.9 124.3 34.3 19.8 34.3-19.8-34.3-19.7z" fill="#24285b"/><path d="m119.8 124.3-20.1-11.6-20.1 11.6h-14.2v8.2l34.3 19.8 34.3-19.8v-8.2z" fill="#24285b"/><path d="m119.8 124.3-20.1-11.6-20.1 11.6h-14.2v8.2l34.3 19.8 34.3-19.8v-8.2z" fill="#fff" opacity=".22"/><path d="m65.4 124.3 34.3 19.8 34.3-19.8-34.3-19.7z" fill="#24285b"/><ellipse cx="198" cy="185.3" opacity=".09" rx="31.7" ry="20.6"/><ellipse cx="296.2" cy="123.6" opacity=".09" rx="14.6" ry="9.5"/><ellipse cx="98.5" cy="123.6" opacity=".09" rx="14.6" ry="9.5"/><path d="m150.7 120 47.3-23.6 47.3 23.6-47.3 33.7z" fill="#24285b"/><path d="m150.7 109.9 47.3 29.4v-93.2z" fill="#68e1fd"/><path d="m245.3 109.9-47.3 29.4v-93.2z" fill="#68e1fd"/><path d="m245.3 109.9-47.3 29.4v-93.2z" fill="#fff" opacity=".44"/><path d="m150.7 120 47.3 33.7v32.2z" fill="#68e1fd"/><path d="m245.3 120-47.3 33.7v32.2z" fill="#68e1fd"/><path d="m245.3 120-47.3 33.7v32.2z" fill="#fff" opacity=".44"/><path d="m272.6 91.2 24-12 24 12-24 17.1z" fill="#24285b"/><path d="m272.6 86 24 14.9v-47.2z" fill="#68e1fd"/><path d="m320.6 86-24 14.9v-47.2z" fill="#68e1fd"/><path d="m320.6 86-24 14.9v-47.2z" fill="#fff" opacity=".44"/><path d="m272.6 91.2 24 17.1v16.4z" fill="#68e1fd"/><path d="m320.6 91.2-24 17.1v16.4z" fill="#68e1fd"/><path d="m320.6 91.2-24 17.1v16.4z" fill="#fff" opacity=".44"/><path d="m75.7 91.2 24-12 24 12-24 17.1z" fill="#24285b"/><path d="m75.7 86 24 14.9v-47.2z" fill="#68e1fd"/><path d="m123.7 86-24 14.9v-47.2z" fill="#68e1fd"/><path d="m123.7 86-24 14.9v-47.2z" fill="#fff" opacity=".44"/><path d="m75.7 91.2 24 17.1v16.4z" fill="#68e1fd"/><path d="m123.7 91.2-24 17.1v16.4z" fill="#68e1fd"/><path d="m123.7 91.2-24 17.1v16.4z" fill="#fff" opacity=".44"/></svg>